<svg id="b658a0a0-460c-425b-9540-f0982b80eaf1" data-name="Layer 1" xmlns="http://www.w3.org/2000/svg" width="865.76" height="682.89" viewBox="0 0 865.76 682.89"><path d="M608.28,163.76a270.49,270.49,0,0,0-14.07-24.59c-59.73-91.09-219.7-140.62-299-46.52-18.9,22.44-25.48,49.55-38.2,75.3-28.91,58.56-83,93.52-116.84,147.72-26.26,42.08-22.76,95.85-8.11,141.27C148,506.3,176,540.77,220.86,567c50.25,29.38,104,21.23,158.29,11,24.43-4.59,49.6-9.28,74.58-7.52,31.23,2.19,62.14,11,93.16,15.34,32.25,4.48,65.73,5.53,96.8-4.21,99.54-31.24,123.11-177.52,82.19-261.33-14.5-29.66-39-52.55-61.84-75.77C639.43,219.4,624.34,194.87,608.28,163.76Z" fill="#31AFC2"/><path d="M608.28,163.76a270.49,270.49,0,0,0-14.07-24.59c-59.73-91.09-219.7-140.62-299-46.52-18.9,22.44-25.48,49.55-38.2,75.3-28.91,58.56-83,93.52-116.84,147.72-26.26,42.08-22.76,95.85-8.11,141.27C148,506.3,176,540.77,220.86,567c50.25,29.38,104,21.23,158.29,11,24.43-4.59,49.6-9.28,74.58-7.52,31.23,2.19,62.14,11,93.16,15.34,32.25,4.48,65.73,5.53,96.8-4.21,99.54-31.24,123.11-177.52,82.19-261.33-14.5-29.66-39-52.55-61.84-75.77C639.43,219.4,624.34,194.87,608.28,163.76Z" fill="#fff" opacity="0.7" style="isolation:isolate"/><path d="M302.13,311.12a4.5,4.5,0,0,1-1.25,6.24,5.44,5.44,0,0,1-.67.37,1.66,1.66,0,0,1-.38.11c-.82.17-5.31,1.31-16.44,1.84S248,314,233.58,309.88,209.82,295.93,207,293.27s-5.48-7-9.79-11.46-5.81-7.81-3.65-8.3a14.05,14.05,0,0,1,9,1.66c2.83,1.67,3.15,2.49,3.15,6.14s1,9.31,5.21,11.13,11.29,6.51,24.91,5.82,31-2.5,45,1.49C290.89,302.64,299.18,306.78,302.13,311.12Z" fill="#31AFC2"/><path d="M275.86,298.62s-4.48-14.16-8.33-13.84-4.79,9.11-4.16,10.51,3.12,2.19,3.12,2.19Z" fill="#31AFC2"/><path d="M275.86,298.62s-4.48-14.16-8.33-13.84-4.79,9.11-4.16,10.51,3.12,2.19,3.12,2.19Z" opacity="0.3"/><path d="M266.36,317.86s-3.72,3.88-3.62,6.48,4.69,10.31,8,8,2.94-13.3,2.94-13.3Z" fill="#31AFC2"/><path d="M266.36,317.86s-3.72,3.88-3.62,6.48,4.69,10.31,8,8,2.94-13.3,2.94-13.3Z" opacity="0.3"/><path d="M244.19,312.81s-3.11,1.85-3.52,3.51.31,4.37,1.56,3.91,5.31-6.67,5.31-6.67Z" fill="#31AFC2"/><path d="M244.19,312.81s-3.11,1.85-3.52,3.51.31,4.37,1.56,3.91,5.31-6.67,5.31-6.67Z" opacity="0.3"/><path d="M246.08,304.56s-6.87,3-11.71,2.81-13.85-7.5-13.85-7.5S237.75,305.6,246.08,304.56Z" fill="#31AFC2"/><path d="M246.08,304.56s-6.87,3-11.71,2.81-13.85-7.5-13.85-7.5S237.75,305.6,246.08,304.56Z" opacity="0.3"/><path d="M195.72,277.47a.35.35,0,0,1-.28-.15l-2.17-3.65a.33.33,0,0,1,.16-.43.33.33,0,0,1,.4.11L196,277a.32.32,0,0,1-.11.44A.22.22,0,0,1,195.72,277.47Z" fill="#000000"/><path d="M197.81,278.13a.34.34,0,0,1-.28-.17l-1.42-2.76a.31.31,0,0,1,.12-.43h0a.32.32,0,0,1,.44.13h0l1.44,2.76a.32.32,0,0,1-.14.43A.47.47,0,0,1,197.81,278.13Z" fill="#000000"/><path d="M200.31,277.73a.32.32,0,0,1-.32-.26l-.66-3.28a.33.33,0,0,1,.64-.13v0l.65,3.26a.31.31,0,0,1-.23.38h-.08Z" fill="#000000"/><path d="M202.41,279.83h0a.34.34,0,0,1-.32-.34h0l.13-3a.33.33,0,0,1,.33-.3h0a.32.32,0,0,1,.31.34h0l-.13,3A.34.34,0,0,1,202.41,279.83Z" fill="#000000"/><path d="M203.58,280.22h0a.35.35,0,0,1-.29-.36l.4-3.4a.33.33,0,0,1,.36-.29.31.31,0,0,1,.28.34h0l-.39,3.41a.3.3,0,0,1-.33.29Z" fill="#000000"/><path d="M266.71,296.33a.17.17,0,0,1-.14,0l-3.28-1.7a.32.32,0,1,1,.29-.58h0l3.28,1.71a.31.31,0,0,1,.14.42v0A.33.33,0,0,1,266.71,296.33Z" fill="#000000"/><path d="M268.28,295.68a.3.3,0,0,1-.2-.08l-4.58-3.67a.3.3,0,0,1,0-.44h0a.33.33,0,0,1,.45,0l4.58,3.67a.31.31,0,0,1,0,.44h0A.33.33,0,0,1,268.28,295.68Z" fill="#000000"/><path d="M268.41,293.05a.32.32,0,0,1-.22-.08l-2.87-2.6a.32.32,0,0,1,0-.46h0a.31.31,0,0,1,.44,0h0l2.89,2.61a.31.31,0,0,1,0,.44h0A.28.28,0,0,1,268.41,293.05Z" fill="#000000"/><path d="M267.1,288.21a.33.33,0,0,1-.26-.13l-1.3-1.69a.33.33,0,0,1,0-.47.31.31,0,0,1,.45.07l1.31,1.7a.34.34,0,0,1,0,.46A.36.36,0,0,1,267.1,288.21Z" fill="#000000"/><path d="M269.59,291.75a.33.33,0,0,1-.26-.14l-1.84-2.6a.33.33,0,0,1,.08-.46.32.32,0,0,1,.45.08l1.84,2.6a.32.32,0,0,1-.08.45h0A.42.42,0,0,1,269.59,291.75Z" fill="#000000"/><path d="M271.42,291.23a.34.34,0,0,1-.27-.16l-2.16-3.6a.36.36,0,0,1,.1-.46.35.35,0,0,1,.46.12l2.22,3.67a.32.32,0,0,1-.11.44A.33.33,0,0,1,271.42,291.23Z" fill="#000000"/><path d="M263,325.67a.31.31,0,0,1-.22-.09.32.32,0,0,1,0-.46l2.89-3a.31.31,0,0,1,.44,0h0a.32.32,0,0,1,0,.46l-2.89,3A.31.31,0,0,1,263,325.67Z" fill="#000000"/><path d="M265.08,326.33a.27.27,0,0,1-.19-.08.31.31,0,0,1,0-.45l1.3-1.7a.32.32,0,0,1,.45-.06.32.32,0,0,1,.07.46l-1.3,1.7A.35.35,0,0,1,265.08,326.33Z" fill="#000000"/><path d="M265.08,329.34a.38.38,0,0,1-.15,0,.34.34,0,0,1-.13-.45l1.83-3.28a.34.34,0,0,1,.45-.12.33.33,0,0,1,.12.45l-1.78,3.18A.32.32,0,0,1,265.08,329.34Z" fill="#000000"/><path d="M268.15,329.86H268a.31.31,0,0,1-.18-.38.05.05,0,0,1,0,0l.65-1.57a.3.3,0,0,1,.4-.18h0a.32.32,0,0,1,.16.41l-.65,1.58A.3.3,0,0,1,268.15,329.86Z" fill="#000000"/><path d="M266.19,330.65a.33.33,0,0,1-.14,0,.33.33,0,0,1-.16-.43l1.05-2.22a.33.33,0,0,1,.42-.21.32.32,0,0,1,.2.41l0,.07-1,2.22A.35.35,0,0,1,266.19,330.65Z" fill="#000000"/><path d="M270.76,332.68h0a.32.32,0,0,1-.3-.35h0l.27-4a.33.33,0,0,1,.35-.3h0a.33.33,0,0,1,.3.35h0l-.27,4A.34.34,0,0,1,270.76,332.68Z" fill="#000000"/><path d="M293,318c0,.32-.68.58-1.51.58S290,318.27,290,318s.68-.6,1.51-.6S293,317.62,293,318Z" fill="#263238"/><path d="M291.53,319.19c-1.3,0-2.16-.5-2.16-1.31s.87-1.3,2.16-1.3,2.16.51,2.16,1.3S292.82,319.19,291.53,319.19Zm1-1" fill="#000000"/><path d="M294.77,306c-.12.3-.83.31-1.62,0s-1.3-.79-1.19-1.08.83-.32,1.61,0S294.89,305.69,294.77,306Z" fill="#263238"/><path d="M294.18,306.86a3.91,3.91,0,0,1-1.3-.26c-1.2-.46-1.83-1.24-1.57-1.93s1.3-.85,2.46-.39a3.6,3.6,0,0,1,1.13.67,1.09,1.09,0,0,1,.44,1.3.92.92,0,0,1-.51.53A1.79,1.79,0,0,1,294.18,306.86Z" fill="#000000"/><path d="M273.67,319.78a.64.64,0,0,1-.48-.22,1.6,1.6,0,0,1-.45-1.74c.69-1.85,5.42-2.53,6.87-2.68a.65.65,0,0,1,.14,1.29c-2.6.3-5.52,1.1-5.79,1.84a.75.75,0,0,0,.19.42.66.66,0,0,1,0,.92A.65.65,0,0,1,273.67,319.78Z" fill="#000000"/><path d="M284.14,303.72H284c-5-1-6.21-4.21-6.26-4.36a.68.68,0,0,1,.43-.86.69.69,0,0,1,.87.43h0c0,.11,1,2.69,5.2,3.51a.65.65,0,0,1,.52.76A.63.63,0,0,1,284.14,303.72Z" fill="#000000"/><path d="M587,129.78a4.49,4.49,0,0,0,5.15,3.71,3.84,3.84,0,0,0,.76-.19l.37-.15a90.1,90.1,0,0,0,13.27-9.87c8.49-7.22,22.05-28.23,29.79-41.11s7.89-26.36,8.14-30.26-.68-8.85-.68-15.07-1.07-9.67-3-8.56a14.15,14.15,0,0,0-5.43,7.32c-.94,3.14-.61,4,1.87,6.65s5.61,7.49,3.82,11.72-3.91,12.43-14.32,21.22S602.32,94.52,594.83,107C589.46,115.91,586.2,124.6,587,129.78Z" fill="#31AFC2"/><path d="M597.73,102.73s-6.38-13.42-3.39-15.81,9.75,3.45,10.22,4.87-.79,3.72-.79,3.72Z" fill="#31AFC2"/><path d="M597.73,102.73s-6.38-13.42-3.39-15.81,9.75,3.45,10.22,4.87-.79,3.72-.79,3.72Z" opacity="0.3"/><path d="M617.74,110.4s5.39.24,7.11,2.21,3.59,10.74-.42,11.33-11.27-7.62-11.27-7.62Z" fill="#31AFC2"/><path d="M617.74,110.4s5.39.24,7.11,2.21,3.59,10.74-.42,11.33-11.27-7.62-11.27-7.62Z" opacity="0.3"/><path d="M630.59,91.48s3.54-.71,5,.23,2.76,3.42,1.56,3.9-8.35-1.27-8.35-1.27Z" fill="#31AFC2"/><path d="M630.59,91.48s3.54-.71,5,.23,2.76,3.42,1.56,3.9-8.35-1.27-8.35-1.27Z" opacity="0.3"/><path d="M623.56,86.79s7.08-2.47,10.53-6,5-14.92,5-14.92S630.37,81.84,623.56,86.79Z" fill="#31AFC2"/><path d="M623.56,86.79s7.08-2.47,10.53-6,5-14.92,5-14.92S630.37,81.84,623.56,86.79Z" opacity="0.3"/><path d="M641.76,32.74a.34.34,0,0,1-.33-.26l-.88-4.14a.33.33,0,0,1,.24-.39.35.35,0,0,1,.39.26l.89,4.14a.32.32,0,0,1-.25.39h-.06Z" fill="#000000"/><path d="M640.66,34.65a.33.33,0,0,1-.31-.24l-.82-3a.34.34,0,0,1,.23-.4.32.32,0,0,1,.39.23l.82,3a.31.31,0,0,1-.22.4h-.09Z" fill="#000000"/><path d="M638.59,36.06a.33.33,0,0,1-.28-.16l-1.75-2.85a.33.33,0,0,1,.55-.34l1.76,2.85a.33.33,0,0,1-.28.5Z" fill="#000000"/><path d="M638.48,39a.3.3,0,0,1-.24-.09l-2.15-2.11a.33.33,0,0,1,0-.46h0a.32.32,0,0,1,.45,0v0l2.15,2.12a.31.31,0,0,1,0,.44h0A.27.27,0,0,1,638.48,39Z" fill="#000000"/><path d="M637.88,40.11a.32.32,0,0,1-.21-.08l-2.6-2.23a.33.33,0,1,1,.43-.49h0l2.6,2.22a.34.34,0,0,1,0,.46A.35.35,0,0,1,637.88,40.11Z" fill="#000000"/><path d="M602.63,94.86h-.1a.32.32,0,0,1-.19-.42L603.57,91a.33.33,0,0,1,.42-.18.32.32,0,0,1,.19.4L603,94.65A.34.34,0,0,1,602.63,94.86Z" fill="#000000"/><path d="M601.05,95.51h0a.32.32,0,0,1-.28-.35v0l.86-5.8a.32.32,0,0,1,.37-.27.3.3,0,0,1,.27.34v0l-.86,5.81a.3.3,0,0,1-.34.27Z" fill="#000000"/><path d="M599.16,93.67h0a.33.33,0,0,1-.3-.35h0l.33-3.9a.32.32,0,0,1,.35-.3h0a.33.33,0,0,1,.3.35h0l-.33,3.9a.32.32,0,0,1-.35.3Z" fill="#000000"/><path d="M596.82,89.24a.35.35,0,0,1-.33-.3l-.19-2.14a.31.31,0,0,1,.27-.35h0a.33.33,0,0,1,.37.28h0l.19,2.14a.34.34,0,0,1-.3.36Z" fill="#000000"/><path d="M597.4,93.56a.34.34,0,0,1-.32-.28l-.44-3.17a.34.34,0,0,1,.2-.44l.11,0a.32.32,0,0,1,.36.26v0l.44,3.17a.32.32,0,0,1-.27.37Z" fill="#000000"/><path d="M595.71,94.39a.35.35,0,0,1-.32-.26l-.88-4.2a.36.36,0,0,1,.26-.4.34.34,0,0,1,.39.25v0L596,94a.33.33,0,0,1-.24.39h-.07Z" fill="#000000"/><path d="M625.32,113.88h0l-4.17-.23a.33.33,0,0,1-.3-.35h0a.3.3,0,0,1,.3-.3h0l4.17.23a.34.34,0,0,1,.31.36.32.32,0,0,1-.35.29Z" fill="#000000"/><path d="M624.28,115.8h0l-2.12-.35a.34.34,0,0,1-.28-.37h0a.34.34,0,0,1,.38-.26l2.12.35a.33.33,0,0,1,.28.37h0A.33.33,0,0,1,624.28,115.8Z" fill="#000000"/><path d="M626.28,118h-.1l-3.58-1.15a.32.32,0,0,1-.21-.41h0a.33.33,0,0,1,.42-.21l3.56,1.14a.33.33,0,0,1,.21.41h0A.34.34,0,0,1,626.28,118Z" fill="#000000"/><path d="M624.43,120.43h-.14l-1.55-.7a.32.32,0,0,1-.15-.43.33.33,0,0,1,.43-.17l1.54.72a.32.32,0,0,1,.16.42A.3.3,0,0,1,624.43,120.43Z" fill="#000000"/><path d="M626.4,119.68h-.12l-2.29-.91a.35.35,0,0,1-.18-.43.34.34,0,0,1,.43-.19l2.28.93a.31.31,0,0,1,.18.4h0A.33.33,0,0,1,626.4,119.68Z" fill="#000000"/><path d="M624.43,124.27a.31.31,0,0,1-.22-.09l-2.91-2.73a.32.32,0,0,1,.05-.46.32.32,0,0,1,.39,0l2.93,2.73a.34.34,0,0,1,0,.46A.35.35,0,0,1,624.43,124.27Z" fill="#000000"/><path d="M598.31,128.58c.23.23.9,0,1.51-.6s.93-1.21.71-1.46-.9,0-1.51.6S598.09,128.34,598.31,128.58Z" fill="#263238"/><path d="M598.55,129.32h0a.91.91,0,0,1-.67-.3h0a.9.9,0,0,1-.24-.69,2.57,2.57,0,0,1,1-1.68c.94-.88,1.92-1.1,2.42-.57s.21,1.51-.72,2.38A2.89,2.89,0,0,1,598.55,129.32Z" fill="#000000"/><path d="M588.89,121c.29.15.82-.35,1.19-1.09s.44-1.47.14-1.61-.82.33-1.2,1.09S588.59,120.89,588.89,121Z" fill="#263238"/><path d="M589,121.67a.86.86,0,0,1-.39-.09,1,1,0,0,1-.49-.56,2.79,2.79,0,0,1,.32-1.92c.57-1.15,1.4-1.71,2.07-1.39s.72,1.3.15,2.49a2.73,2.73,0,0,1-1.3,1.42A1.49,1.49,0,0,1,589,121.67Z" fill="#000000"/><path d="M606.62,118.54a.62.62,0,0,1-.52-.26.65.65,0,0,1,.14-.91h0c1.16-.86,5.09-3.59,6.85-2.72a1.61,1.61,0,0,1,.85,1.59.63.63,0,0,1-.63.66h0a.65.65,0,0,1-.65-.65c0-.17,0-.37-.13-.43-.72-.35-3.43,1.06-5.51,2.61A.64.64,0,0,1,606.62,118.54Z" fill="#000000"/><path d="M594.71,112.28a.61.61,0,0,1-.39-.13.65.65,0,0,1-.14-.91c2.6-3.5,1.52-6,1.47-6.15a.67.67,0,0,1,.33-.86.65.65,0,0,1,.86.34c0,.13,1.41,3.3-1.61,7.44A.61.61,0,0,1,594.71,112.28Z" fill="#000000"/><path d="M250.08,565.14a4.48,4.48,0,0,0-1.4,6.19,5.73,5.73,0,0,0,.47.63l.29.26c.69.49,4.32,3.37,14.31,8.34s34.62,9.17,49.46,11.23,27.33-3.12,31-4.4,7.81-4.16,13.6-6.51,8.49-4.77,6.72-6.1a14.08,14.08,0,0,0-8.88-2.12c-3.25.38-3.9,1-5.37,4.33s-4.69,8.1-9.21,8.08-12.95,1.31-25.14-4.77-27.33-14.88-41.75-16.92C263.78,562,254.55,562.42,250.08,565.14Z" fill="#31AFC2"/><path d="M279.15,564.42s9.84-11.13,13.24-9.29.66,10.32-.46,11.31-3.75.73-3.75.73Z" fill="#31AFC2"/><path d="M279.15,564.42s9.84-11.13,13.24-9.29.66,10.32-.46,11.31-3.75.73-3.75.73Z" opacity="0.3"/><path d="M280.12,585.81s1.75,5.06.6,7.39-8.45,7.52-10.58,4.08,2.71-13.35,2.71-13.35Z" fill="#31AFC2"/><path d="M280.12,585.81s1.75,5.06.6,7.39-8.45,7.52-10.58,4.08,2.71-13.35,2.71-13.35Z" opacity="0.3"/><path d="M302.43,590.16s2,3,1.72,4.7-2.07,3.91-3,3-2.18-8.27-2.18-8.27Z" fill="#31AFC2"/><path d="M302.43,590.16s2,3,1.72,4.7-2.07,3.91-3,3-2.18-8.27-2.18-8.27Z" opacity="0.3"/><path d="M304,581.91s5.05,5.55,9.62,7.34S329.32,588,329.32,588,311.15,586.23,304,581.91Z" fill="#31AFC2"/><path d="M361.11,577.6a.29.29,0,0,1-.26-.14.32.32,0,0,1,.08-.45h0l3.45-2.45a.33.33,0,1,1,.38.53l-3.49,2.45A.23.23,0,0,1,361.11,577.6Z" fill="#000000"/><path d="M358.93,577.34a.33.33,0,0,1-.25-.11.31.31,0,0,1,0-.44v0l2.43-1.94a.34.34,0,0,1,.46,0,.33.33,0,0,1,0,.47l-2.43,1.93A.36.36,0,0,1,358.93,577.34Z" fill="#000000"/><path d="M356.82,576a.34.34,0,0,1-.2,0,.34.34,0,0,1-.08-.46h0l1.92-2.73a.33.33,0,0,1,.46-.08h0a.33.33,0,0,1,.08.45h0l-1.93,2.73A.35.35,0,0,1,356.82,576Z" fill="#000000"/><path d="M354.05,577h-.12a.3.3,0,0,1-.19-.39v0l1.1-2.81a.31.31,0,0,1,.4-.19h0a.31.31,0,0,1,.18.41l-1.09,2.81A.32.32,0,0,1,354.05,577Z" fill="#000000"/><path d="M352.81,576.93h-.09a.35.35,0,0,1-.22-.42l1-3.27a.33.33,0,0,1,.62.2h0l-1,3.27A.32.32,0,0,1,352.81,576.93Z" fill="#000000"/><path d="M288.57,566.06a.32.32,0,0,1-.32-.32.32.32,0,0,1,.32-.33l3.72-.27a.33.33,0,0,1,0,.65l-3.68.23Z" fill="#000000"/><path d="M287.4,564.82a.32.32,0,0,1-.08-.63l5.68-1.5a.34.34,0,0,1,.4.23.32.32,0,0,1-.23.39l-5.68,1.5Z" fill="#000000"/><path d="M288.39,562.38a.32.32,0,0,1-.31-.22.34.34,0,0,1,.21-.42l3.69-1.22a.31.31,0,0,1,.4.19h0a.3.3,0,0,1-.17.39l0,0-3.69,1.23Z" fill="#000000"/><path d="M291.51,558.47a.32.32,0,0,1-.32-.32.32.32,0,0,1,.17-.29l1.88-1a.33.33,0,0,1,.44.14h0a.31.31,0,0,1-.12.42h0l-1.89,1Z" fill="#000000"/><path d="M287.8,560.7a.33.33,0,0,1-.28-.16.32.32,0,0,1,.12-.44l2.73-1.65a.33.33,0,0,1,.35.55h0L288,560.65A.31.31,0,0,1,287.8,560.7Z" fill="#000000"/><path d="M286.33,559.48a.32.32,0,0,1-.31-.34.34.34,0,0,1,.13-.25l3.53-2.46a.33.33,0,0,1,.44.09.32.32,0,0,1-.07.44h0l-3.52,2.46A.33.33,0,0,1,286.33,559.48Z" fill="#000000"/><path d="M280,594.37a.38.38,0,0,1-.32-.22l-1.4-3.91a.33.33,0,0,1,.19-.42.35.35,0,0,1,.42.2l1.4,3.9a.31.31,0,0,1-.17.41h0Z" fill="#000000"/><path d="M277.85,594.12a.32.32,0,0,1-.31-.26l-.51-2.08a.33.33,0,0,1,.24-.4.33.33,0,0,1,.4.24l.5,2.1a.33.33,0,0,1-.24.39h-.08Z" fill="#000000"/><path d="M276.68,596.87a.32.32,0,0,1-.31-.3l-.36-3.74a.34.34,0,0,1,.29-.35.32.32,0,0,1,.36.28v0l.34,3.73a.3.3,0,0,1-.24.35h-.08Z" fill="#000000"/><path d="M273.67,596.12h0a.31.31,0,0,1-.31-.31v-1.72a.34.34,0,0,1,.32-.32h0a.34.34,0,0,1,.32.34h0v1.7A.34.34,0,0,1,273.67,596.12Z" fill="#000000"/><path d="M275.14,597.67a.3.3,0,0,1-.32-.3h0V594.9a.32.32,0,0,1,.31-.34h0a.32.32,0,0,1,.32.33v2.46A.31.31,0,0,1,275.14,597.67Z" fill="#000000"/><path d="M270.17,597.67h-.12a.32.32,0,0,1-.18-.41l1.3-3.77a.34.34,0,0,1,.42-.18.32.32,0,0,1,.19.41l-1.3,3.76A.32.32,0,0,1,270.17,597.67Z" fill="#000000"/><path d="M255.62,575.12c-.13.3.38.81,1.13,1.14s1.49.37,1.62.08-.38-.82-1.14-1.16S255.75,574.82,255.62,575.12Z" fill="#263238"/><path d="M257.87,577.19h-.1a3.67,3.67,0,0,1-1.3-.33,2.68,2.68,0,0,1-1.47-1.3,1,1,0,0,1,0-.74c.29-.68,1.3-.78,2.47-.26s1.77,1.3,1.47,2A1.11,1.11,0,0,1,257.87,577.19Z" fill="#000000"/><path d="M258.89,563.47c0,.33.63.63,1.47.66s1.52-.18,1.53-.5-.63-.63-1.47-.67S258.9,563.15,258.89,563.47Z" fill="#263238"/><path d="M260.57,564.8h-.25c-1.3-.07-2.12-.61-2.08-1.3,0-.26.14-.73.91-1a3.8,3.8,0,0,1,1.3-.14c1.3.06,2.12.61,2.08,1.3,0,.26-.16.73-.91,1A3.41,3.41,0,0,1,260.57,564.8Z" fill="#000000"/><path d="M272.84,584.66a.66.66,0,1,1-.26-1.3c.15-.07.34-.17.35-.3,0-.78-2.32-2.72-4.56-4a.65.65,0,0,1-.24-.87h0a.67.67,0,0,1,.9-.24c1.3.73,5.29,3.27,5.2,5.21a1.6,1.6,0,0,1-1.12,1.42A.6.6,0,0,1,272.84,584.66Z" fill="#000000"/><path d="M272.16,566.07a10.66,10.66,0,0,1-2.52-.3.62.62,0,0,1-.49-.75v0a.64.64,0,0,1,.77-.49h0c4.21,1,6.15-1,6.23-1.07a.66.66,0,0,1,.92,0,.65.65,0,0,1,0,.92h0A6.88,6.88,0,0,1,272.16,566.07Z" fill="#000000"/><g id="a85ff981-9b6d-4f9b-883b-ff2ff52436b2" data-name="freepik--Water--inject-2"><path d="M587.42,239.32a.65.65,0,0,1-.62-.51,295.3,295.3,0,0,0-25.21-71.23.65.65,0,0,1,1.11-.67l0,.09a296.2,296.2,0,0,1,25.31,71.57.65.65,0,0,1-.49.78h0Z" fill="#000000"/><path d="M265.38,239.32h-.14a.67.67,0,0,1-.5-.78h0A296.15,296.15,0,0,1,290.06,167a.65.65,0,0,1,1.2.5l0,.08A295.45,295.45,0,0,0,266,238.77.65.65,0,0,1,265.38,239.32Z" fill="#000000"/><path d="M314.19,309.07h0a.64.64,0,0,1-.64-.66h0A308.41,308.41,0,0,1,322.66,236a.66.66,0,0,1,.81-.49.68.68,0,0,1,.49.81,307.76,307.76,0,0,0-9,72.08.64.64,0,0,1-.64.66Z" fill="#000000"/><path d="M307.73,419.19a.64.64,0,0,1-.62-.47,344.48,344.48,0,0,1-13.29-70.94.65.65,0,1,1,1.3-.11,341.63,341.63,0,0,0,13.24,70.67.67.67,0,0,1-.43.82h0Z" fill="#000000"/><path d="M432.21,515.91h-.09c-43.73-6.42-82.26-46.59-103.1-107.47a.66.66,0,0,1,1.24-.43h0c20.67,60.41,58.82,100.21,102,106.6a.66.66,0,0,1,.55.74A.65.65,0,0,1,432.21,515.91Z" fill="#000000"/><path d="M424.94,581.77h-.11C361.06,571.94,306.18,522.66,278.18,450a.64.64,0,0,1,.36-.83h0a.65.65,0,0,1,.84.36c27.83,72.24,82.29,121.22,145.65,131a.65.65,0,0,1-.1,1.3Z" fill="#000000"/><path d="M505,535.38a.62.62,0,0,1-.53-.29.63.63,0,0,1,.15-.89h0c14.75-10.13,28.35-23.89,40.4-40.89a.64.64,0,0,1,.89-.16h0a.63.63,0,0,1,.16.9h0c-12.13,17.13-25.83,31-40.74,41.2A.58.58,0,0,1,505,535.38Z" fill="#000000"/><path d="M536.91,456.34a.6.6,0,0,1-.34-.09.64.64,0,0,1-.22-.87l0,0c24.36-38.53,37.74-89.68,37.74-144a321,321,0,0,0-3-44,.65.65,0,0,1,.55-.74.66.66,0,0,1,.75.55,321.19,321.19,0,0,1,3,44.25c0,54.6-13.49,106-38,144.72A.67.67,0,0,1,536.91,456.34Z" fill="#000000"/><path d="M580.72,509.17a.55.55,0,0,1-.35-.12.66.66,0,0,1-.2-.9c40.35-61.72,60.18-141.85,55.78-225.7a428.59,428.59,0,0,0-9-67.68.65.65,0,0,1,.49-.78h0a.66.66,0,0,1,.78.51,428.15,428.15,0,0,1,9,67.84c4.41,84.1-15.47,164.54-56,226.45A.64.64,0,0,1,580.72,509.17Z" fill="#000000"/><path d="M580,142a.68.68,0,0,1-.56-.3c-13.25-21.23-28.07-39.15-44.09-53.27a.65.65,0,0,1,0-.92h0a.62.62,0,0,1,.88,0l0,0c16.1,14.2,31,32.23,44.35,53.56a.64.64,0,0,1-.18.88l0,0A.68.68,0,0,1,580,142Z" fill="#000000"/><path d="M334.21,114.14a.64.64,0,0,1-.65-.64.6.6,0,0,1,.15-.42C356.44,85.18,381.77,66.3,409,57a.66.66,0,0,1,.83.4.65.65,0,0,1-.4.82c-27,9.23-52.06,28-74.67,55.69A.62.62,0,0,1,334.21,114.14Z" fill="#000000"/><path d="M324.26,172.94a.58.58,0,0,1-.29-.06.64.64,0,0,1-.3-.85h0c29-59.61,73.05-93.78,120.82-93.78,38.1,0,74.54,22.21,102.61,62.57a.65.65,0,0,1-.11.91.66.66,0,0,1-.92-.11l0-.06c-27.82-40-63.89-62-101.52-62-47.24,0-90.85,33.92-119.64,93A.63.63,0,0,1,324.26,172.94Z" fill="#000000"/><path d="M636.76,547.94a.66.66,0,0,1-.64-.69.67.67,0,0,1,.1-.34,329.91,329.91,0,0,0,19.53-32.22.65.65,0,1,1,1.15.6h0a331.3,331.3,0,0,1-19.6,32.35A.67.67,0,0,1,636.76,547.94Z" fill="#000000"/><path d="M660.55,507.53a.6.6,0,0,1-.29-.08.62.62,0,0,1-.29-.85v0c25.11-50.39,38.6-108.52,39-168.09a.64.64,0,0,1,.64-.64h0a.66.66,0,0,1,.66.65c-.38,59.77-13.92,118.09-39.13,168.66A.63.63,0,0,1,660.55,507.53Z" fill="#000000"/><path d="M699.5,327.11a.64.64,0,0,1-.65-.62c-.23-10.42-.89-20.92-1.91-31.24a.64.64,0,0,1,.58-.71.65.65,0,0,1,.72.58c1,10.32,1.69,20.82,1.92,31.24a.64.64,0,0,1-.63.66h0Z" fill="#000000"/><path d="M177.33,347a.65.65,0,0,1-.65-.63c-.09-3.49-.13-7-.13-10.51a407.55,407.55,0,0,1,3.06-50,.65.65,0,0,1,1.29.15v0a408.71,408.71,0,0,0-3,49.82c0,3.48,0,7,.13,10.48a.65.65,0,0,1-.64.66h0Z" fill="#000000"/><path d="M228.64,530.13a.65.65,0,0,1-.56-.32c-30.4-50.9-48.05-111.25-51-174.52a.65.65,0,1,1,1.3-.07c3,63.07,20.57,123.21,50.86,173.92a.66.66,0,0,1-.56,1Z" fill="#000000"/><path d="M240.46,548.55a.64.64,0,0,1-.53-.29c-2.61-3.84-5.31-7.81-7.81-11.84a.66.66,0,0,1,.21-.9.64.64,0,0,1,.89.21h0c2.52,4,5.21,8,7.81,11.79a.65.65,0,0,1-.16.91h0A.58.58,0,0,1,240.46,548.55Z" fill="#000000"/></g><g id="bd7981f1-27e1-497e-b997-277f70ee776c" data-name="freepik--Plants--inject-2"><path d="M658.38,266.28a.46.46,0,0,0-.49.41,57.53,57.53,0,0,0,20.67,52.14.45.45,0,0,0,.64-.64l-.07-.06a56.6,56.6,0,0,1-20.34-51.33.44.44,0,0,0-.37-.5h0Z" fill="#000000"/><path d="M666.76,283.8c-5.39,1.3-8.92-6.9-8.74-7-.07-.95-.13-1.9-.14-2.86.47,1.19,3,3,7.11,3.9S671.92,282.73,666.76,283.8Z" fill="#000000"/><path d="M651.05,286.88c-5.32,1.11-4.09-6.28-.09-8.07s6.33-3.74,6.84-4.91c0,1-.06,1.92,0,2.87C657.54,276.71,656.06,285.66,651.05,286.88Z" fill="#000000"/><path d="M669,291.7c-5.08,2.2-9.92-5.21-9.76-5.38-.24-.91-.45-1.83-.63-2.75.67,1.08,3.5,2.38,7.65,2.6S673.93,289.77,669,291.7Z" fill="#000000"/><path d="M654.05,297.39c-5.06,2-5.06-5.46-1.43-7.88s5.62-4.71,5.92-5.93c.12.94.26,1.87.43,2.8C658.77,286.34,658.78,295.28,654.05,297.39Z" fill="#000000"/><path d="M672.55,299.08c-4.65,3-10.65-3.46-10.52-3.65-.38-.84-.73-1.7-1.07-2.6.84.93,3.84,1.72,8,1.3S677.08,296.36,672.55,299.08Z" fill="#000000"/><path d="M658.75,307.19c-4.66,2.78-5.89-4.52-2.7-7.5s4.75-5.57,4.84-6.81c.27.89.57,1.79.88,2.61C661.56,295.53,663.07,304.39,658.75,307.19Z" fill="#000000"/><path d="M677.28,305.77c-4.08,3.73-11.08-1.66-11-1.84q-.76-1.17-1.47-2.37c1,.78,4.06,1.06,8.07-.1S681.29,302.33,677.28,305.77Z" fill="#000000"/><path d="M665,316.1c-4.13,3.53-6.59-3.49-3.91-7s3.77-6.28,3.65-7.52c.41.83.86,1.65,1.3,2.47C665.85,304.09,668.81,312.55,665,316.1Z" fill="#000000"/><path d="M683.12,311.62c-3.4,4.38-11.26.19-11.2,0-.63-.69-1.3-1.39-1.86-2.09,1.1.6,4.19.36,8-1.45S686.49,307.55,683.12,311.62Z" fill="#000000"/><path d="M672.79,323.91c-3.48,4.18-7.13-2.37-5.11-6.25s2.6-6.83,2.32-8c.56.75,1.13,1.5,1.73,2.24C671.51,311.83,675.91,319.73,672.79,323.91Z" fill="#000000"/><path d="M675.58,315.66c-.14,0,3.9,7,7.56,9.55s6.27.6,6.4-1.3-2.33-3.62-4.68-4.59C682.45,318.55,675.55,315.79,675.58,315.66Z" fill="#000000"/><path d="M675.61,315.36h0a.28.28,0,0,0-.28.22h0a.2.2,0,0,0,.07.23c.52,1.41,4.5,7.44,7.62,9.62a5,5,0,0,0,5,1,3.11,3.11,0,0,0,1.86-2.49c.22-2.6-3.68-4.4-4.89-4.89-2.35-.76-8.62-3.27-9.11-3.6A.26.26,0,0,0,675.61,315.36Zm10.56,10.79a5.4,5.4,0,0,1-2.85-1.19c-2.86-2-6-6.76-7.05-8.62.59.26,1.5.62,2.93,1.19,1.85.73,4.27,1.67,5.55,2.08,2.27.93,4.65,2.61,4.49,4.27a2.45,2.45,0,0,1-1.5,2,3.4,3.4,0,0,1-1.57.28Z" fill="#000000"/><path d="M656.57,527.49a.48.48,0,0,0-.2-.62,61,61,0,0,0-59.42-.71.51.51,0,0,0-.2.67.48.48,0,0,0,.65.18,60,60,0,0,1,58.5.69.48.48,0,0,0,.65-.17Z" fill="#000000"/><path d="M636,528.68c.87-5.81,10.41-6,10.41-5.73,1,.31,1.91.64,2.87,1-1.31,0-4.14,1.79-6.72,5.39S635,534.18,636,528.68Z" fill="#000000"/><path d="M639.31,512c1.07-5.66,7.81-1.48,8,3.15s1.12,7.72,2.07,8.68c-.92-.43-1.86-.82-2.79-1.19C646.69,522.49,638.52,517.44,639.31,512Z" fill="#000000"/><path d="M627.37,527.71c-.1-5.85,9.11-7.62,9.21-7.4,1,.13,2,.3,2.95.49-1.3.21-3.73,2.48-5.63,6.51S627.28,533.31,627.37,527.71Z" fill="#000000"/><path d="M627.82,510.77c.09-5.75,7.38-2.77,8.29,1.76s2.37,7.4,3.43,8.18c-1-.25-1.94-.48-2.91-.69C636.76,519.83,628,516.23,627.82,510.77Z" fill="#000000"/><path d="M618.72,528.23c-1.07-5.76,7.68-9,7.81-8.85h3c-1.31.43-3.23,3.06-4.44,7.32S619.58,533.75,618.72,528.23Z" fill="#000000"/><path d="M616.33,511.45c-.88-5.7,6.79-4,8.43.35s3.55,6.89,4.72,7.48c-1-.1-2-.16-3-.2C626.62,518.88,617.37,516.81,616.33,511.45Z" fill="#000000"/><path d="M610.26,530.17c-2-5.5,6.08-10.2,6.22-10,1-.2,1.94-.37,2.92-.51-1.16.65-2.67,3.57-3.15,8S612,535.48,610.26,530.17Z" fill="#000000"/><path d="M605.08,514c-1.79-5.46,6.07-5,8.41-1.06s4.64,6.22,5.91,6.59c-1,.08-2,.17-3,.3C616.47,519.63,607,519.12,605.08,514Z" fill="#000000"/><path d="M602.15,533.54c-2.92-5.08,4.34-11.12,4.51-11,.92-.35,1.86-.67,2.79-1-1,.84-2,4-1.78,8.38S604.82,538.48,602.15,533.54Z" fill="#000000"/><path d="M594.34,518.5c-2.7-5.09,5.21-6,8.16-2.5s5.65,5.34,7,5.51c-1,.24-1.93.5-2.88.79C606.64,522.07,597.13,523.21,594.34,518.5Z" fill="#000000"/><path d="M601.26,524.54c0-.16-8.45,1-12.41,3.56s-3.11,5.91-1.3,6.81,4.5-.85,6.4-2.76S601.14,524.46,601.26,524.54Z" fill="#000000"/><path d="M625.15,494.53a14.74,14.74,0,0,0-8.93,2.09c-3.9,2.38-3.11,5.91-1.3,6.81s4.49-.85,6.39-2.76A68.48,68.48,0,0,0,625.15,494.53Z" fill="#000000"/><path d="M598,494.54a8.77,8.77,0,0,0,8.37-2.28c3.18-3.34,1.42-6.5-.56-6.9s-4.1,2-5.43,4.38A36.31,36.31,0,0,1,598,494.54Z" fill="#000000"/><path d="M601.54,524.67h0a.29.29,0,0,0-.1-.35h0a.23.23,0,0,0-.25,0c-1.59,0-9.11,1.43-12.49,3.6a5.26,5.26,0,0,0-3,4.54,3.29,3.29,0,0,0,1.69,2.83c2.43,1.3,5.79-1.85,6.76-2.83,1.67-2,6.66-7.13,7.21-7.54A.29.29,0,0,0,601.54,524.67Zm-14.82,6a5.57,5.57,0,0,1,2.3-2.31c3.11-2,9-3.14,11.3-3.45-.48.47-1.23,1.22-2.36,2.39-1.45,1.51-3.34,3.53-4.27,4.62-1.82,1.84-4.37,3.52-6,2.68a2.6,2.6,0,0,1-1.3-2.27,3.41,3.41,0,0,1,.33-1.66Z" fill="#000000"/><path d="M253.63,404.6a.48.48,0,0,0,.22-.64,63.68,63.68,0,0,0-49.53-37.48.5.5,0,0,0-.15,1h0a62.71,62.71,0,0,1,48.76,36.89.5.5,0,0,0,.65.26Z" fill="#000000"/><path d="M235.63,392.89c4.34-4.35,12.4,1.4,12.31,1.63.61.86,1.2,1.74,1.77,2.61-1.12-.86-4.58-1.07-9,.36S231.35,396.79,235.63,392.89Z" fill="#000000"/><path d="M248.71,380.89c4.41-4.12,7.48,3.6,4.74,7.58s-3.91,7.2-3.66,8.59c-.51-.93-1-1.85-1.6-2.76C248.42,394.25,244.69,384.93,248.71,380.89Z" fill="#000000"/><path d="M228.94,386.66c3.56-5,12.4-.76,12.35-.53.73.73,1.46,1.48,2.16,2.25-1.23-.64-4.67-.23-8.74,1.93S225.39,391.31,228.94,386.66Z" fill="#000000"/><path d="M239.84,372.69c3.65-4.79,7.92,2.24,5.88,6.62s-2.61,7.69-2.2,9c-.65-.81-1.3-1.62-2-2.4C241.74,385.84,236.54,377.35,239.84,372.69Z" fill="#000000"/><path d="M221.35,381.71c2.61-5.51,12.07-2.84,12.06-2.61.86.6,1.7,1.21,2.49,1.84-1.3-.41-4.63.57-8.27,3.39S218.63,386.89,221.35,381.71Z" fill="#000000"/><path d="M229.75,366.11c2.81-5.32,8.19.88,6.88,5.54s-1.3,8-.67,9.22c-.77-.69-1.56-1.3-2.37-2C233.85,378.75,227.34,371.27,229.75,366.11Z" fill="#000000"/><path d="M213,378.1c1.7-5.89,11.44-4.81,11.45-4.58.92.44,1.85.9,2.76,1.39-1.37-.18-4.45,1.3-7.59,4.74S211.22,383.66,213,378.1Z" fill="#000000"/><path d="M218.7,361.31c1.87-5.72,8.24-.49,7.73,4.31s0,8.11.87,9.21l-2.6-1.58C224.83,373.1,217.15,366.86,218.7,361.31Z" fill="#000000"/><path d="M204.15,376c.7-6.09,10.55-6.65,10.59-6.42,1,.27,2,.57,3,.91-1.38,0-4.18,2.06-6.7,5.92S203.3,381.71,204.15,376Z" fill="#000000"/><path d="M206.9,358.41c.88-6,8.1-1.86,8.42,3s1.43,8,2.43,8.94c-1-.39-1.94-.77-2.92-1.12C215,369,206.31,364.08,206.9,358.41Z" fill="#000000"/><path d="M209,367.75c.15-.09-7.81-4.36-12.63-4.68S190,366.1,191,368s4.3,2.08,7.08,1.64C200.79,369,208.9,367.62,209,367.75Z" fill="#000000"/><path d="M241.25,352.67c.13-.1-7.8-4.37-12.65-4.7s-6.28,3-5.32,4.91,4.3,2.08,7.09,1.65A109.39,109.39,0,0,1,241.25,352.67Z" fill="#000000"/><path d="M209.12,368.05h0a.32.32,0,0,0,.13-.36h0a.21.21,0,0,0-.18-.18c-1.3-1-8.54-4.44-12.75-4.73a5.53,5.53,0,0,0-5.3,2,3.42,3.42,0,0,0-.34,3.42c1.3,2.61,6,2.05,7.43,1.83,2.6-.64,10-1.87,10.75-1.88A.28.28,0,0,0,209.12,368.05Zm-16.2-4.13a6,6,0,0,1,3.37-.53c3.9.27,9.54,3,11.71,4.12-.7.1-1.78.27-3.46.56-2.17.36-5,.88-6.51,1.23-2.6.41-5.85.25-6.7-1.48a2.77,2.77,0,0,1,.29-2.75,3.49,3.49,0,0,1,1.29-1.15Z" fill="#000000"/></g><path d="M621.19,197s-5.82-5.44-35.4-16.64a3.68,3.68,0,0,1,1.19-.47c14.4-5.66,14.15-18,14.15-18-7.21,12.34-18.78,12.6-18.78,12.6a10.9,10.9,0,0,0-7,2l-5.05-1.78h0a6.59,6.59,0,0,1,1.54-6.42c14.14-9.51,17-14.4,17-14.4,9-21.6-30.85-30.08-30.85-30.08-35.74-6.43-38.31-8.23-38.31-8.23C486.2,104.83,513.71,85,513.71,85a71.82,71.82,0,0,0-7.58.82,58.57,58.57,0,0,0-39.7,25.51c-20.73,31.54,4.34,60.82,4.34,60.82-8.74-.51-16.71-10.79-16.71-10.79,2.31,13.11,12.6,17,12.6,17l.19.07-36.18,16.13s-17.48,8.23-2.32,18.26l47.82,38.3s6.94,7.72,8.23,13.89c0,0-9.17,20.06,10.29,23.39,0,0,7.71,22.63-1.29,44.48,0,0-9,21.6-14.91,30.34,0,0-20,25.79-4.75,75.81a125.4,125.4,0,0,0,9.26,22.2l10.91,20.52s-26.74,35.48-21.59,88.18c0,0,2.31,16.45-.78,22.88,0,0-4.37,6.69-2.57,20.05,0,0,2.49,34,19,37.28,1.28.26,16.71,3.86,12.85-6.94,0,0-15.17-37-11.57-57.58,0,0,6.94-25.21,14.4-41.4L519.88,502s1.28-4.37,2.83,1.8l14.13,73.28s3.09,21.08-1.53,40.36L525,646.54s-5.14,4.88,3.35,8.22c0,0,35,6.43,26.47-56.31a21.71,21.71,0,0,1,1.29-15.93s17.74-64-6.94-99c0,0,54.51-65.09,21.63-125L567.33,352l-.1.07c-6-11.7-17-37.56-12.75-63h0a23.13,23.13,0,0,0,7.45-2.75s10.31-7.4,4.94-22.22h0L572.48,252l40.79-32.47S634.92,205.75,621.19,197ZM503.65,228a8.58,8.58,0,0,0-1.64-2.47c-2.52-2.44-8.49-6.58-18.9-4.53l-32.23-14.55a1.14,1.14,0,0,1-.13-2l24.39-15a15.68,15.68,0,0,1,.26,1.72c7.2,21.34,39.64,27.36,39.64,27.36l-1.73,4.83h0c-1.23,2.65-2.95,5-5.3,5.87a5.32,5.32,0,0,1-1,.25,4.28,4.28,0,0,1-.78,0,4.16,4.16,0,0,1-1.56-.44A2.26,2.26,0,0,1,503.65,228Zm15.17,164.38a5.51,5.51,0,0,0,.41.43,7.23,7.23,0,0,0,.93.8l.54.35a6.7,6.7,0,0,0,2.7.84,7.1,7.1,0,0,0,4-.79,8,8,0,0,0,1.67-1.17,7.87,7.87,0,0,0,1.32-1.6c-3.42,8-6.57,42.56-6.57,42.56C523,422.55,519.18,395,518.82,392.42Zm80.32-186.16L564.79,222S550,220.32,545,229.06h-3.13l.13.26h0c-2.41-.08-5.46-.93-5.95-4.63l-.94-5.63L535,218c28.28,1.4,40.53-14.78,45.36-24.72l.18,0,18.73,11.56A.79.79,0,0,1,599.14,206.26Z" opacity="0.2" style="isolation:isolate"/><path d="M544.26,165.82s-5.82-5.44-35.4-16.63q-4.8-1.83-10.46-3.84l-5-1.78L484.21,150l7.19,8.59,12,3.54.17,0,18.74,11.56a.79.79,0,0,1-.09,1.38l-34.36,15.73s-14.77-1.68-19.77,7.07a13,13,0,0,1-3,.26c-2.41-.08-5.47-.92-6-4.63L458,186.8l-.08-.49c-.19.17-.39.31-.58.47a16.32,16.32,0,0,1-10,3.58,16.06,16.06,0,0,1-9.21-3c-1.11,4-3.27,9.37-7,10.7a5.71,5.71,0,0,1-1,.24,4.77,4.77,0,0,1-2.34-.45,2.21,2.21,0,0,1-1-1,8.29,8.29,0,0,0-1.65-2.47c-2.51-2.45-8.49-6.58-18.9-4.54L374,175.31a1.15,1.15,0,0,1-.13-2l24.39-15,1.79-1.1-4.88-13.63-3.34,2.84-1.86.83-36.18,16.12s-17.5,8.24-2.32,18.26l47.81,38.31s6.94,7.71,8.23,13.88l10.29,23.4s7.71,22.63-1.29,44.48c0,0-3.89,9.32-8.22,18.2A111.37,111.37,0,0,1,401.56,332s-20,25.79-4.74,75.81A124.25,124.25,0,0,0,406.08,430L417,450.55s-6.14,8.15-12,22.44a138.41,138.41,0,0,0-9.62,65.75s2.32,16.45-.77,22.88c0,0-4.37,6.68-2.57,20,0,0,2.48,34,19,37.27,1.28.26,16.71,3.87,12.86-6.93,0,0-15.17-37-11.58-57.59,0,0,6.95-25.2,14.41-41.39l11.08-28.85L443,470.85s1.27-4.36,2.82,1.81l14.14,73.27S463,567,458.38,586.29L448.1,615.35s-5.14,4.88,3.34,8.23c0,0,35,6.43,26.48-56.3a21.73,21.73,0,0,1,1.28-15.95s17.74-64-6.93-99c0,0,54.51-65.09,21.63-125,0,0-1.5-2.37-3.61-6.48-6-11.71-17-37.56-12.74-63a.06.06,0,0,1,0,0q.38-2.26.93-4.53l11.45-20.39,5.62-12.08,40.79-32.46S558,174.57,544.26,165.82Zm-97.4,236.84c-.79-11.28-4.6-38.82-5-41.43a6.73,6.73,0,0,0,4.57,2.43,7.5,7.5,0,0,0,7-3.56C450,368.11,446.86,402.66,446.86,402.66Z" fill="#f9b499"/><path d="M447.46,225.09c-.16,2.82-.83,8.86-3.59,10.59,0,0,1.32,2.78,1.12,4.24l6-.62a8.91,8.91,0,0,1,1.72-3.4A73.23,73.23,0,0,1,448,225,.29.29,0,0,0,447.46,225.09Z" fill="#f7a48b"/><path d="M472.2,169.53c-1.31,3.31-4.2,5.28-6.48,4.47a32.81,32.81,0,0,0,1.4-9.6c0-.74,0-1.46-.07-2.18a3.83,3.83,0,0,1,3.39-.45C472.75,162.69,473.54,166.17,472.2,169.53Z" fill="none" stroke="#ed1c24" stroke-miterlimit="10"/><path d="M429,174.11c-1.88-.41-3.73-2.32-4.56-5-1.1-3.45-.06-6.86,2.31-7.61a3.54,3.54,0,0,1,1-.14,29.76,29.76,0,0,0-.14,3A33.17,33.17,0,0,0,429,174.11Z" fill="none" stroke="#ed1c24" stroke-miterlimit="10"/><path d="M493.9,327.32c-19.49,1.83-35.64,25.09-40.46,32.78a7.5,7.5,0,0,1-7,3.56,6.73,6.73,0,0,1-4.57-2.43,9.77,9.77,0,0,1-1.51-2.47,6.88,6.88,0,0,1-.42-1.18c-8.67-23.14-35.49-30.38-35.49-30.38l3.76-7.33c34.34,19.88,63.08,10.66,75.49,4.66a48.63,48.63,0,0,0,6.59-3.71l.06.11Z" fill="#31AFC2"/><path d="M438.12,187.39l-1.74,4.82s16.09,10.6,22.24-1.69l-.68-4.32S449.44,194.67,438.12,187.39Z" fill="#f7a48b"/><path d="M468.09,197.88s9.55,13.26,21.85,35c0,0,3.81-8,5.62-12.07l42.28-33.62s19.54-12.45,6.57-21.17A262.86,262.86,0,0,0,489,142.35l5.25,13.93,28.08,17.38a.78.78,0,0,1-.09,1.37l-34.41,15.78S473.37,189.22,468.09,197.88Z" fill="#f7a48b"/><path d="M467.12,164.4a32.81,32.81,0,0,1-1.4,9.6A25.75,25.75,0,0,1,458,186.31l-.59.47a16.27,16.27,0,0,1-10,3.58,16.06,16.06,0,0,1-9.21-3l-.14-.09a25,25,0,0,1-9-13.19,33.17,33.17,0,0,1-1.43-9.71,29.76,29.76,0,0,1,.14-3c1.13-12.92,9.49-23,19.66-23,10.37,0,18.88,10.47,19.72,23.79C467.1,162.94,467.12,163.66,467.12,164.4Z" fill="#f9b499"/><path d="M510.05,148.71a3.58,3.58,0,0,0-1.19.48c-1.07.64-2.5,2.11-2.66,5.44a37.79,37.79,0,0,1-2.8,7.46c-4.83,9.94-17.09,26.12-45.37,24.72l-.67,0,.59-.47A25.75,25.75,0,0,0,465.72,174a32.81,32.81,0,0,0,1.4-9.6c0-.74,0-1.46-.07-2.18-.84-13.32-9.35-23.79-19.72-23.79-10.17,0-18.53,10-19.66,23a29.76,29.76,0,0,0-.14,3,33.17,33.17,0,0,0,1.43,9.71,25,25,0,0,0,9,13.19l.14.09s-32.44-6-39.65-27.36a16.93,16.93,0,0,0-.25-1.72c-.61-3-2.51-9.09-8.3-11.08l-.19-.06s-10.28-3.85-12.59-17c0,0,8,10.29,16.71,10.8,0,0-25.07-29.28-4.34-60.83A58.59,58.59,0,0,1,429.2,54.66a72.09,72.09,0,0,1,7.59-.81s-27.52,19.8,5.9,30.59c0,0,2.57,1.8,38.32,8.23,0,0,39.85,8.48,30.84,30.08,0,0-2.82,4.88-17,14.4a6.58,6.58,0,0,0-1.54,6.42,16,16,0,0,1-.26,8,17.34,17.34,0,0,1,5.3-6.19,10.93,10.93,0,0,1,7-2s11.57-.26,18.77-12.61C524.2,130.71,524.46,143.06,510.05,148.71Z" fill="#000000"/><path d="M485,255.07a23.23,23.23,0,0,1-7.46,2.74c-15.6,2.72-27-13.92-27-13.92l-5-.22c-11.4,18.41-27.79,13.54-27.79,13.54-19.46-3.34-10.28-23.4-10.28-23.4.8-5.25,16-29.21,20.27-35.93a4.88,4.88,0,0,0,2.35.46,5.52,5.52,0,0,0,1-.25L419.6,224.31c23.1-.83,25.39,15.61,25.39,15.61l6-.62c6.86-16.65,26.22-15.61,26.22-15.61l-12.16-25.56-.12-.25h3.12c5.2,6.24,21.85,35,21.85,35C495.32,247.67,485,255.07,485,255.07Z" fill="#31AFC2"/><path d="M424.48,261.72c0,4.12-.34,41.38-12.1,60.39-.68-.32-1.36-.69-2.06-1.06s-1.41-.78-2.07-1.16c4.33-8.88,8.22-18.2,8.22-18.2,9-21.85,1.29-44.48,1.29-44.48s14.28,4.36,25.55-10.35c0,0-2.61,11.92-18.45,14.43A.44.44,0,0,0,424.48,261.72Z" fill="#f7a48b"/><path d="M490.29,320.84a49.39,49.39,0,0,1-6.56,3.69c-11.58-19.13-12.87-58.16-12.87-62.24a.47.47,0,0,0-.38-.45c-15.83-2.51-17.6-15.17-17.6-15.17,12.49,14.6,24.22,11.24,24.68,11.1a.06.06,0,0,0,0,0C473.27,283.28,484.28,309.13,490.29,320.84Z" fill="#f7a48b"/><path d="M485.1,329.75s7.87,41.08-.08,76a73.8,73.8,0,0,1-25.48,39.83s-4,4.37-6.31-4.37c0,0-3.45-31.32-.75-57.75a61.06,61.06,0,0,1,5.37-19.41c4-8.54,10.59-21.22,18.22-29.44a99.12,99.12,0,0,0-22.63,25.46s-5.95,25.57-7.29,50.24a35.75,35.75,0,0,0,.59,8.64c1.23,6.41,3.36,19.68,2.56,31.11a150.73,150.73,0,0,1-3.68,20.39l0,.06s9.67,52.24,14.5,77.34c0,0,3,26.59-2.42,40.16,0,0-7.9,24.57-9.56,27.31,0,0-4.94,6,3.34,8.23,0,0,21.32,5.41,26.86-25.5,0,0,3-9.67-.38-30.8,0,0-2.34-7.86.4-14.25a33.9,33.9,0,0,0,1.74-4.76c3.11-12,14.23-63.41-7.79-95.92,0,0,54.18-64.54,21.63-125C493.9,327.32,490.84,327.48,485.1,329.75Z" fill="#f7a48b"/><path d="M412.35,554.42C408.76,575,423.93,612,423.93,612c3.85,10.8-11.58,7.19-12.86,6.93-16.54-3.3-19-37.27-19-37.27-1.8-13.37,2.57-20,2.57-20,3.09-6.43.77-22.88.77-22.88A138.41,138.41,0,0,1,405,473c3.32,4.63,12.05,12.49,32.83,11.19L426.76,513C419.3,529.22,412.35,554.42,412.35,554.42Z" fill="#f7a48b"/></svg>