<?xml version="1.0" encoding="utf-8"?>
<!-- Generator: Adobe Illustrator 22.0.0, SVG Export Plug-In . SVG Version: 6.00 Build 0)  -->
<svg version="1.1" id="Layer_1" xmlns="http://www.w3.org/2000/svg" xmlns:xlink="http://www.w3.org/1999/xlink" x="0px" y="0px"
	 viewBox="0 0 670 670" style="enable-background:new 0 0 670 670;" xml:space="preserve">
<style type="text/css">
	.st0{fill:#1CA7EC;}
</style>
<g id="SVGRepo_bgCarrier">
</g>
<g id="SVGRepo_tracerCarrier">
</g>
<g id="SVGRepo_iconCarrier">
	<title>user-profile-filled</title>
	<g id="Page-1">
		<g id="drop" transform="translate(42.666667, 42.666667)">
			<path id="Combined-Shape" class="st0" d="M292.3-41C380.7-41,465.5-5.9,528,56.6s97.6,147.3,97.6,235.7
				c0,184.1-149.2,333.3-333.3,333.3S-41,476.4-41,292.3S108.2-41,292.3-41z M325.7,325.7H259c-82.5,0-153.4,50-183.9,121.3
				c48.3,67.8,127.6,112,217.3,112s168.9-44.2,217.3-112C479,375.6,408.2,325.7,325.7,325.7L325.7,325.7z M292.3,59
				c-55.2,0-100,44.8-100,100s44.8,100,100,100s100-44.8,100-100S347.6,59,292.3,59z"/>
		</g>
	</g>
</g>
</svg>
