<?xml version="1.0" encoding="utf-8"?>
<!-- Generator: Adobe Illustrator 22.0.0, SVG Export Plug-In . SVG Version: 6.00 Build 0)  -->
<svg version="1.1" id="Layer_1" xmlns="http://www.w3.org/2000/svg" xmlns:xlink="http://www.w3.org/1999/xlink" x="0px" y="0px"
	 viewBox="0 0 600 500" style="enable-background:new 0 0 600 500;" xml:space="preserve">
<g transform="translate(0.000000,600.000000) scale(0.100000,-0.100000)">
	<path d="M2555,5884c-891-87-1772-443-2467-996c-49-38-88-74-88-80c0-11,257-321,271-326c5-2,41,23,81,55
		c996,808,2315,1112,3588,828c614-137,1218-430,1708-828c40-32,76-57,81-55c14,5,271,315,271,326c0,6-39,42-87,80
		c-702,557-1584,911-2482,996C3226,5904,2754,5904,2555,5884z"/>
	<path d="M2810,5089c-784-36-1562-325-2187-812c-57-44-103-84-103-90c0-11,258-320,271-325c5-2,48,28,97,66
		c465,370,1029,612,1617,696c940,134,1878-117,2607-696c49-38,92-68,97-66c13,5,271,315,271,326c0,24-302,243-486,352
		C4327,4937,3579,5125,2810,5089z"/>
	<path d="M2810,4220c-427-27-901-167-1270-375c-188-106-469-304-463-326c2-5,62-80,135-166c72-87,133-160,134-161c2-2,59,38,127,90
		c296,222,623,373,970,448c211,46,303,55,557,55s346-9,557-55c346-75,675-227,967-446c66-51,124-90,129-87c6,4,226,265,264,313
		c10,13,2,23-47,62c-262,210-587,384-930,498c-273,91-490,133-774,150C3000,4230,2978,4230,2810,4220z"/>
	<path d="M1840,2010v-910h200h200v910v910h-200h-200V2010z"/>
	<path d="M2690,2011v-911h200h200v345v345h98h97l214-345l214-345h219c120,0,218,2,218,5s-114,175-253,382c-140,208-257,383-260,390
		c-5,7,15,24,50,44c76,43,183,150,217,216c54,108,69,244,41,378c-42,196-162,312-390,376c-75,21-104,22-472,26l-393,4V2011z
		 M3387,2577c133-36,195-142,163-277c-30-126-135-180-347-180h-113v241v242l123-6C3280,2594,3358,2585,3387,2577z"/>
</g>
</svg>
