<?xml version="1.0" encoding="utf-8"?>
<!-- Generator: Adobe Illustrator 22.0.0, SVG Export Plug-In . SVG Version: 6.00 Build 0)  -->
<svg version="1.1" id="Layer_1" xmlns="http://www.w3.org/2000/svg" xmlns:xlink="http://www.w3.org/1999/xlink" x="0px" y="0px"
	 viewBox="0 0 60 60" style="enable-background:new 0 0 60 60;" xml:space="preserve">
<style type="text/css">
	.st0{fill:#1CA7EC;}
</style>
<g id="SVGRepo_bgCarrier">
</g>
<g id="SVGRepo_tracerCarrier">
</g>
<g id="SVGRepo_iconCarrier">
	<path class="st0" d="M59.5,36.3c-1.6,0.4-3.2,0.6-4.9,0.6c-10.9,0-19.7-8.8-19.7-19.7c0-1.7,0.2-3.3,0.6-4.9
		c-12.2,0.5-22,10.6-22,23c0,12.7,10.3,23,23,23C48.9,58.3,59,48.5,59.5,36.3z"/>
	<path class="st0" d="M5.4,19.7c0.9,0,1.6,0.7,1.6,1.6v4.9c0,0.9-0.7,1.6-1.6,1.6s-1.6-0.7-1.6-1.6v-4.9C3.7,20.4,4.5,19.7,5.4,19.7
		z"/>
	<path class="st0" d="M1.3,23.8c0-0.9,0.7-1.6,1.6-1.6h4.9c0.9,0,1.6,0.7,1.6,1.6c0,0.9-0.7,1.6-1.6,1.6H2.9
		C2,25.4,1.3,24.7,1.3,23.8z"/>
	<path class="st0" d="M15.2,2.4c0.9,0,1.6,0.7,1.6,1.6v6.6c0,0.9-0.7,1.6-1.6,1.6s-1.6-0.7-1.6-1.6V4.1C13.6,3.2,14.3,2.4,15.2,2.4z
		"/>
	<path class="st0" d="M10.3,7.4c0-0.9,0.7-1.6,1.6-1.6h6.6c0.9,0,1.6,0.7,1.6,1.6S19.4,9,18.5,9h-6.6C11,9,10.3,8.3,10.3,7.4z"/>
</g>
</svg>
