<?xml version="1.0" encoding="utf-8"?>
<!-- Generator: Adobe Illustrator 22.0.0, SVG Export Plug-In . SVG Version: 6.00 Build 0)  -->
<svg version="1.1" id="Layer_1" xmlns="http://www.w3.org/2000/svg" xmlns:xlink="http://www.w3.org/1999/xlink" x="0px" y="0px"
	 viewBox="0 0 43 53" style="enable-background:new 0 0 43 53;" xml:space="preserve">
<style type="text/css">
	.st0{opacity:0.4;fill:#F0B117;enable-background:new    ;}
	.st1{fill:#F0B117;}
</style>
<g>
	<g id="SVGRepo_bgCarrier">
	</g>
	<g id="SVGRepo_tracerCarrier">
	</g>
	<g id="SVGRepo_iconCarrier">
		<path class="st0" d="M39.9,38.7l-1.1-5c-0.3-1.1-0.2-3,0.2-4l2.1-6.4c2.6-8.2-1.9-17-10.1-19.6S14,5.6,11.3,13.7l-2.1,6.4
			c-0.3,1-1.4,2.6-2.2,3.4l-3.9,3.4c-1.6,1.4-2.4,3.1-2.3,5.1c0,1.9,1,3.6,2.7,4.9c4.3,3.2,9.2,5.7,14.3,7.4
			c5.1,1.7,10.5,2.6,15.9,2.4c1.9,0,3.8-0.9,5-2.4C39.9,42.6,40.4,40.7,39.9,38.7z"/>
		<path class="st1" d="M36.1,6.5c-1.5-1.2-3.3-2.2-5.3-2.9c-2-0.6-3.9-0.8-6-0.8c1.7-1.7,4.3-2.3,6.7-1.5
			C34.1,2.2,35.7,4.2,36.1,6.5z"/>
		<path class="st1" d="M24.1,48.9c-2,2.6-5.4,3.7-8.7,2.6c-2-0.6-3.7-2-4.6-3.9c-0.5-1-0.9-2.2-0.8-3.3c0.3,0.2,0.6,0.3,1,0.4
			c0.5,0.3,1.1,0.6,1.7,0.8c1.4,0.6,2.8,1.1,4.3,1.6c1.4,0.5,2.9,0.8,4.3,1.2c0.6,0.1,1.1,0.2,1.6,0.3
			C23.3,48.7,23.6,48.8,24.1,48.9z"/>
	</g>
	<g id="SVGRepo_bgCarrier_1_">
	</g>
	<g id="SVGRepo_tracerCarrier_1_">
	</g>
	<g id="SVGRepo_iconCarrier_1_">
		<path class="st0" d="M39.9,38.7l-1.1-5c-0.3-1.1-0.2-3,0.2-4l2.1-6.4c2.6-8.2-1.9-17-10.1-19.6S14,5.6,11.3,13.7l-2.1,6.4
			c-0.3,1-1.4,2.6-2.2,3.4l-3.9,3.4c-1.6,1.4-2.4,3.1-2.3,5.1c0,1.9,1,3.6,2.7,4.9c4.3,3.2,9.2,5.7,14.3,7.4
			c5.1,1.7,10.5,2.6,15.9,2.4c1.9,0,3.8-0.9,5-2.4C39.9,42.6,40.4,40.7,39.9,38.7z"/>
		<path class="st1" d="M36.1,6.5c-1.5-1.2-3.3-2.2-5.3-2.9c-2-0.6-3.9-0.8-6-0.8c1.7-1.7,4.3-2.3,6.7-1.5
			C34.1,2.2,35.7,4.2,36.1,6.5z"/>
		<path class="st1" d="M24.1,48.9c-2,2.6-5.4,3.7-8.7,2.6c-2-0.6-3.7-2-4.6-3.9c-0.5-1-0.9-2.2-0.8-3.3c0.3,0.2,0.6,0.3,1,0.4
			c0.5,0.3,1.1,0.6,1.7,0.8c1.4,0.6,2.8,1.1,4.3,1.6c1.4,0.5,2.9,0.8,4.3,1.2c0.6,0.1,1.1,0.2,1.6,0.3
			C23.3,48.7,23.6,48.8,24.1,48.9z"/>
	</g>
	<g id="SVGRepo_bgCarrier_2_">
	</g>
	<g id="SVGRepo_tracerCarrier_2_">
	</g>
	<g id="SVGRepo_iconCarrier_2_">
		<path class="st0" d="M39.9,38.7l-1.1-5c-0.3-1.1-0.2-3,0.2-4l2.1-6.4c2.6-8.2-1.9-17-10.1-19.6S14,5.6,11.3,13.7l-2.1,6.4
			c-0.3,1-1.4,2.6-2.2,3.4l-3.9,3.4c-1.6,1.4-2.4,3.1-2.3,5.1c0,1.9,1,3.6,2.7,4.9c4.3,3.2,9.2,5.7,14.3,7.4
			c5.1,1.7,10.5,2.6,15.9,2.4c1.9,0,3.8-0.9,5-2.4C39.9,42.6,40.4,40.7,39.9,38.7z"/>
		<path class="st1" d="M36.1,6.5c-1.5-1.2-3.3-2.2-5.3-2.9c-2-0.6-3.9-0.8-6-0.8c1.7-1.7,4.3-2.3,6.7-1.5
			C34.1,2.2,35.7,4.2,36.1,6.5z"/>
		<path class="st1" d="M24.1,48.9c-2,2.6-5.4,3.7-8.7,2.6c-2-0.6-3.7-2-4.6-3.9c-0.5-1-0.9-2.2-0.8-3.3c0.3,0.2,0.6,0.3,1,0.4
			c0.5,0.3,1.1,0.6,1.7,0.8c1.4,0.6,2.8,1.1,4.3,1.6c1.4,0.5,2.9,0.8,4.3,1.2c0.6,0.1,1.1,0.2,1.6,0.3
			C23.3,48.7,23.6,48.8,24.1,48.9z"/>
	</g>
</g>
</svg>
