<?xml version="1.0" encoding="utf-8"?>
<!-- Generator: Adobe Illustrator 22.0.0, SVG Export Plug-In . SVG Version: 6.00 Build 0)  -->
<svg version="1.1" id="Layer_1" xmlns="http://www.w3.org/2000/svg" xmlns:xlink="http://www.w3.org/1999/xlink" x="0px" y="0px"
	 viewBox="0 0 800 800" style="enable-background:new 0 0 800 800;" xml:space="preserve">
<style type="text/css">
	.st0{opacity:0.4;fill:#66C6D4;enable-background:new    ;}
	.st1{fill:#3B3C3D;}
	.st2{fill:#292D32;}
	.st3{fill:#606060;}
</style>
<path class="st0" d="M732.3,382.3L688,647.7c-8,47-53.7,85.7-101.3,85.7H213.3c-48,0-93.3-38.3-101.3-85.7L67.6,382.3
	c-5.7-32.7,11-76.3,37-97l231-185c35.3-28.3,93-28.3,128.7,0.3l231,184.7C721,306,737.6,349.7,732.3,382.3z"/>
<path class="st1" d="M437.4,545c0.3,13.7-10.7,25.3-24.3,25.7c0,0-0.3,0-0.7,0c-13.7,0-24.7-11-25-24.3c-1-45-30.7-74.7-75.7-75.7
	C298,470.3,287,459,287.4,445c0.3-13.7,11.3-24.3,25-24.3c0.3,0,0.3,0,0.7,0C384.7,422.3,436,473.3,437.4,545z"/>
<path class="st2" d="M512.4,570.7c-13.7,0-25-11-25-24.7c-0.3-22-4-43-10.7-62.7c-17-48.7-53.3-84.7-102-102
	c-19.7-7-40.7-10.7-62.7-10.7c-13.7,0-25-11.3-24.7-25.3c0-13.7,11.3-24.7,25-24.7h0.3c27.7,0.3,54,5,78.7,13.7
	c63,22.3,110,69.3,132.3,132.3c8.7,24.7,13.3,51.3,13.7,78.7C537.7,559.3,526.7,570.7,512.4,570.7
	C512.7,570.7,512.7,570.7,512.4,570.7z"/>
<path class="st3" d="M346,546c0,18.3-15,33.3-33.3,33.3c-18.7,0-33.3-15-33.3-33.3c0-18.3,15-33.3,33.3-33.3
	C331,512.7,346,527.7,346,546z"/>
</svg>
