<?xml version="1.0" encoding="utf-8"?>
<!-- Generator: Adobe Illustrator 22.0.0, SVG Export Plug-In . SVG Version: 6.00 Build 0)  -->
<svg version="1.1" id="Layer_1" xmlns="http://www.w3.org/2000/svg" xmlns:xlink="http://www.w3.org/1999/xlink" x="0px" y="0px"
	 viewBox="0 0 800 800" style="enable-background:new 0 0 800 800;" xml:space="preserve">
<style type="text/css">
	.st0{opacity:0.4;fill:#66C6D4;enable-background:new    ;}
	.st1{fill:#3B3C3D;}
	.st2{fill:#292D32;}
	.st3{fill:#606060;}
	.st4{fill:#212121;}
</style>
<path class="st0" d="M732.3,382.3L688,647.7c-8,47-53.7,85.7-101.3,85.7H213.3c-48,0-93.3-38.3-101.3-85.7L67.6,382.3
	c-5.7-32.7,11-76.3,37-97l231-185c35.3-28.3,93-28.3,128.7,0.3l231,184.7C721,306,737.6,349.7,732.3,382.3z"/>
<path class="st1" d="M450,311c5,5,5.1,13.2,0.2,18.3c0,0-0.1,0.1-0.3,0.3c-5.1,4.9-13.1,4.8-18,0c-16.6-16.3-38.2-16.7-55.3-0.9
	c-5.2,4.8-13.4,4.5-18.3-0.8c-4.8-5.2-4.5-13.1,0.5-18c0.1-0.1,0.1-0.1,0.3-0.3C386.3,284.4,423.7,284.9,450,311z"/>
<path class="st2" d="M487,293.5c-5.1,4.9-13.2,4.9-18.2-0.2c-8-8.1-16.9-14.5-26.5-19.4c-23.8-12-50.2-12.3-74.5-1.2
	c-9.8,4.5-18.9,10.7-27.1,18.6c-5.1,4.9-13.3,4.8-18.3-0.5c-4.9-5.1-4.7-13.2,0.4-18.2l0.1-0.1c10.4-9.8,21.8-17.6,34.1-23.2
	c31.4-14.4,65.7-13.8,96.6,1.5c12.1,6,23.4,14.2,33.4,24.3C492.3,280.2,492.3,288.4,487,293.5C487.1,293.4,487.1,293.4,487,293.5z"
	/>
<path class="st3" d="M416.4,344.2c6.6,6.8,6.4,17.7-0.4,24.3c-6.9,6.7-17.7,6.4-24.3-0.4c-6.6-6.8-6.4-17.7,0.4-24.3
	S409.8,337.4,416.4,344.2z"/>
<path class="st4" d="M366,400c-36.8,0-66.7,29.9-66.7,66.7v266.7H366V600h66.7v133.4h66.7V466.7c0-36.8-29.9-66.7-66.7-66.7H366
	 M366,466.7h66.7v66.7H366V466.7z"/>
</svg>
