<svg version="1.2" xmlns="http://www.w3.org/2000/svg" viewBox="0 0 512 512" width="512" height="512">
	<title>New Project</title>
	<style>
		.s0 { fill: #ffffff } 
	</style>
	<g id="Layer">
		<path id="Layer" fill-rule="evenodd" class="s0" d="m428.6 370.7c6.6 11.4 6.6 25.5 0 37-6.6 11.4-18.8 18.5-32 18.5h-96.2v29.6c0 5.9-2.3 11.5-6.5 15.7-4.2 4.1-9.8 6.5-15.7 6.5h-177.6c-5.9 0-11.5-2.4-15.7-6.5-4.2-4.2-6.5-9.8-6.5-15.7v-399.6c0-5.9 2.3-11.5 6.5-15.7 4.2-4.2 9.8-6.5 15.7-6.5h177.6c5.9 0 11.5 2.3 15.7 6.5 4.2 4.2 6.5 9.8 6.5 15.7v296h96.2c13.2 0 25.4 7 32 18.5zm-143 55.5h-72.2c-10.3 12.8-25.5 20.8-41.9 22-16.4 1.2-32.6-4.4-44.7-15.6-12-11.2-18.9-26.9-18.9-43.4 0-16.5 6.9-32.2 18.9-43.4 12.1-11.2 28.3-16.8 44.7-15.6 16.4 1.2 31.6 9.2 41.9 22h72.2v-296c0-2-0.8-3.8-2.2-5.2-1.3-1.4-3.2-2.2-5.2-2.2h-177.6c-4.1 0-7.4 3.3-7.4 7.4v399.6c0 4.1 3.3 7.4 7.4 7.4h177.6c2 0 3.9-0.8 5.2-2.2 1.4-1.4 2.2-3.2 2.2-5.2zm-93.9-74c-9-6-19.8-8.4-30.4-7-10.7 1.4-20.5 6.7-27.6 14.8-7 8-10.9 18.4-10.9 29.2 0 10.7 3.9 21.1 10.9 29.2 7.1 8.1 16.9 13.4 27.6 14.8 10.6 1.4 21.4-1.1 30.4-7h-17.1c-13.2 0-25.4-7.1-32-18.5-6.6-11.5-6.6-25.6 0-37 6.6-11.5 18.8-18.5 32-18.5z"/>
		<path id="Layer" class="s0" d="m152.4 85.8c0 12.3-9.9 22.2-22.2 22.2-12.3 0-22.2-9.9-22.2-22.2 0-12.3 9.9-22.2 22.2-22.2 12.3 0 22.2 9.9 22.2 22.2z"/>
		<path id="Layer" class="s0" d="m211.6 85.8c0 12.3-9.9 22.2-22.2 22.2-12.3 0-22.2-9.9-22.2-22.2 0-12.3 9.9-22.2 22.2-22.2 12.3 0 22.2 9.9 22.2 22.2z"/>
		<path id="Layer" class="s0" d="m270.8 85.8c0 12.3-9.9 22.2-22.2 22.2-12.3 0-22.2-9.9-22.2-22.2 0-12.3 9.9-22.2 22.2-22.2 12.3 0 22.2 9.9 22.2 22.2z"/>
		<path id="Layer" class="s0" d="m152.4 145c0 12.3-9.9 22.2-22.2 22.2-12.3 0-22.2-9.9-22.2-22.2 0-12.3 9.9-22.2 22.2-22.2 12.3 0 22.2 9.9 22.2 22.2z"/>
		<path id="Layer" class="s0" d="m211.6 145c0 12.3-9.9 22.2-22.2 22.2-12.3 0-22.2-9.9-22.2-22.2 0-12.3 9.9-22.2 22.2-22.2 12.3 0 22.2 9.9 22.2 22.2z"/>
		<path id="Layer" class="s0" d="m270.8 145c0 12.3-9.9 22.2-22.2 22.2-12.3 0-22.2-9.9-22.2-22.2 0-12.3 9.9-22.2 22.2-22.2 12.3 0 22.2 9.9 22.2 22.2z"/>
		<path id="Layer" class="s0" d="m152.4 204.2c0 12.3-9.9 22.2-22.2 22.2-12.3 0-22.2-9.9-22.2-22.2 0-12.3 9.9-22.2 22.2-22.2 12.3 0 22.2 9.9 22.2 22.2z"/>
		<path id="Layer" class="s0" d="m211.6 204.2c0 12.3-9.9 22.2-22.2 22.2-12.3 0-22.2-9.9-22.2-22.2 0-12.3 9.9-22.2 22.2-22.2 12.3 0 22.2 9.9 22.2 22.2z"/>
		<path id="Layer" class="s0" d="m270.8 204.2c0 12.3-9.9 22.2-22.2 22.2-12.3 0-22.2-9.9-22.2-22.2 0-12.3 9.9-22.2 22.2-22.2 12.3 0 22.2 9.9 22.2 22.2z"/>
		<path id="Layer" class="s0" d="m145 241.2h88.8c4.1 0 7.4 4.1 7.4 7.4v59.2c0 4.1-3.3 7.4-7.4 7.4h-88.8c-4.1 0-7.4-4.1-7.4-7.4v-59.2c0-4.1 3.3-7.4 7.4-7.4z"/>
	</g>
	<g id="Layer">
		<path id="Layer" fill-rule="evenodd" class="s0" d="m428.6 370.7c6.6 11.4 6.6 25.5 0 37-6.6 11.4-18.8 18.5-32 18.5h-96.2v29.6c0 5.9-2.3 11.5-6.5 15.7-4.2 4.1-9.8 6.5-15.7 6.5h-177.6c-5.9 0-11.5-2.4-15.7-6.5-4.2-4.2-6.5-9.8-6.5-15.7v-399.6c0-5.9 2.3-11.5 6.5-15.7 4.2-4.2 9.8-6.5 15.7-6.5h177.6c5.9 0 11.5 2.3 15.7 6.5 4.2 4.2 6.5 9.8 6.5 15.7v296h96.2c13.2 0 25.4 7 32 18.5zm-143 55.5h-72.2c-10.3 12.8-25.5 20.8-41.9 22-16.4 1.2-32.6-4.4-44.7-15.6-12-11.2-18.9-26.9-18.9-43.4 0-16.5 6.9-32.2 18.9-43.4 12.1-11.2 28.3-16.8 44.7-15.6 16.4 1.2 31.6 9.2 41.9 22h72.2v-296c0-2-0.8-3.8-2.2-5.2-1.3-1.4-3.2-2.2-5.2-2.2h-177.6c-4.1 0-7.4 3.3-7.4 7.4v399.6c0 4.1 3.3 7.4 7.4 7.4h177.6c2 0 3.9-0.8 5.2-2.2 1.4-1.4 2.2-3.2 2.2-5.2zm-93.9-74c-9-6-19.8-8.4-30.4-7-10.7 1.4-20.5 6.7-27.6 14.8-7 8-10.9 18.4-10.9 29.2 0 10.7 3.9 21.1 10.9 29.2 7.1 8.1 16.9 13.4 27.6 14.8 10.6 1.4 21.4-1.1 30.4-7h-17.1c-13.2 0-25.4-7.1-32-18.5-6.6-11.5-6.6-25.6 0-37 6.6-11.5 18.8-18.5 32-18.5z"/>
		<path id="Layer" class="s0" d="m152.4 85.8c0 12.3-9.9 22.2-22.2 22.2-12.3 0-22.2-9.9-22.2-22.2 0-12.3 9.9-22.2 22.2-22.2 12.3 0 22.2 9.9 22.2 22.2z"/>
		<path id="Layer" class="s0" d="m211.6 85.8c0 12.3-9.9 22.2-22.2 22.2-12.3 0-22.2-9.9-22.2-22.2 0-12.3 9.9-22.2 22.2-22.2 12.3 0 22.2 9.9 22.2 22.2z"/>
		<path id="Layer" class="s0" d="m270.8 85.8c0 12.3-9.9 22.2-22.2 22.2-12.3 0-22.2-9.9-22.2-22.2 0-12.3 9.9-22.2 22.2-22.2 12.3 0 22.2 9.9 22.2 22.2z"/>
		<path id="Layer" class="s0" d="m152.4 145c0 12.3-9.9 22.2-22.2 22.2-12.3 0-22.2-9.9-22.2-22.2 0-12.3 9.9-22.2 22.2-22.2 12.3 0 22.2 9.9 22.2 22.2z"/>
		<path id="Layer" class="s0" d="m211.6 145c0 12.3-9.9 22.2-22.2 22.2-12.3 0-22.2-9.9-22.2-22.2 0-12.3 9.9-22.2 22.2-22.2 12.3 0 22.2 9.9 22.2 22.2z"/>
		<path id="Layer" class="s0" d="m270.8 145c0 12.3-9.9 22.2-22.2 22.2-12.3 0-22.2-9.9-22.2-22.2 0-12.3 9.9-22.2 22.2-22.2 12.3 0 22.2 9.9 22.2 22.2z"/>
		<path id="Layer" class="s0" d="m152.4 204.2c0 12.3-9.9 22.2-22.2 22.2-12.3 0-22.2-9.9-22.2-22.2 0-12.3 9.9-22.2 22.2-22.2 12.3 0 22.2 9.9 22.2 22.2z"/>
		<path id="Layer" class="s0" d="m211.6 204.2c0 12.3-9.9 22.2-22.2 22.2-12.3 0-22.2-9.9-22.2-22.2 0-12.3 9.9-22.2 22.2-22.2 12.3 0 22.2 9.9 22.2 22.2z"/>
		<path id="Layer" class="s0" d="m270.8 204.2c0 12.3-9.9 22.2-22.2 22.2-12.3 0-22.2-9.9-22.2-22.2 0-12.3 9.9-22.2 22.2-22.2 12.3 0 22.2 9.9 22.2 22.2z"/>
		<path id="Layer" class="s0" d="m145 241.2h88.8c4.1 0 7.4 4.1 7.4 7.4v59.2c0 4.1-3.3 7.4-7.4 7.4h-88.8c-4.1 0-7.4-4.1-7.4-7.4v-59.2c0-4.1 3.3-7.4 7.4-7.4z"/>
	</g>
	<g id="Layer">
		<path id="Layer" fill-rule="evenodd" class="s0" d="m428.6 370.7c6.6 11.4 6.6 25.5 0 37-6.6 11.4-18.8 18.5-32 18.5h-96.2v29.6c0 5.9-2.3 11.5-6.5 15.7-4.2 4.1-9.8 6.5-15.7 6.5h-177.6c-5.9 0-11.5-2.4-15.7-6.5-4.2-4.2-6.5-9.8-6.5-15.7v-399.6c0-5.9 2.3-11.5 6.5-15.7 4.2-4.2 9.8-6.5 15.7-6.5h177.6c5.9 0 11.5 2.3 15.7 6.5 4.2 4.2 6.5 9.8 6.5 15.7v296h96.2c13.2 0 25.4 7 32 18.5zm-143 55.5h-72.2c-10.3 12.8-25.5 20.8-41.9 22-16.4 1.2-32.6-4.4-44.7-15.6-12-11.2-18.9-26.9-18.9-43.4 0-16.5 6.9-32.2 18.9-43.4 12.1-11.2 28.3-16.8 44.7-15.6 16.4 1.2 31.6 9.2 41.9 22h72.2v-296c0-2-0.8-3.8-2.2-5.2-1.3-1.4-3.2-2.2-5.2-2.2h-177.6c-4.1 0-7.4 3.3-7.4 7.4v399.6c0 4.1 3.3 7.4 7.4 7.4h177.6c2 0 3.9-0.8 5.2-2.2 1.4-1.4 2.2-3.2 2.2-5.2zm-93.9-74c-9-6-19.8-8.4-30.4-7-10.7 1.4-20.5 6.7-27.6 14.8-7 8-10.9 18.4-10.9 29.2 0 10.7 3.9 21.1 10.9 29.2 7.1 8.1 16.9 13.4 27.6 14.8 10.6 1.4 21.4-1.1 30.4-7h-17.1c-13.2 0-25.4-7.1-32-18.5-6.6-11.5-6.6-25.6 0-37 6.6-11.5 18.8-18.5 32-18.5z"/>
		<path id="Layer" class="s0" d="m152.4 85.8c0 12.3-9.9 22.2-22.2 22.2-12.3 0-22.2-9.9-22.2-22.2 0-12.3 9.9-22.2 22.2-22.2 12.3 0 22.2 9.9 22.2 22.2z"/>
		<path id="Layer" class="s0" d="m211.6 85.8c0 12.3-9.9 22.2-22.2 22.2-12.3 0-22.2-9.9-22.2-22.2 0-12.3 9.9-22.2 22.2-22.2 12.3 0 22.2 9.9 22.2 22.2z"/>
		<path id="Layer" class="s0" d="m270.8 85.8c0 12.3-9.9 22.2-22.2 22.2-12.3 0-22.2-9.9-22.2-22.2 0-12.3 9.9-22.2 22.2-22.2 12.3 0 22.2 9.9 22.2 22.2z"/>
		<path id="Layer" class="s0" d="m152.4 145c0 12.3-9.9 22.2-22.2 22.2-12.3 0-22.2-9.9-22.2-22.2 0-12.3 9.9-22.2 22.2-22.2 12.3 0 22.2 9.9 22.2 22.2z"/>
		<path id="Layer" class="s0" d="m211.6 145c0 12.3-9.9 22.2-22.2 22.2-12.3 0-22.2-9.9-22.2-22.2 0-12.3 9.9-22.2 22.2-22.2 12.3 0 22.2 9.9 22.2 22.2z"/>
		<path id="Layer" class="s0" d="m270.8 145c0 12.3-9.9 22.2-22.2 22.2-12.3 0-22.2-9.9-22.2-22.2 0-12.3 9.9-22.2 22.2-22.2 12.3 0 22.2 9.9 22.2 22.2z"/>
		<path id="Layer" class="s0" d="m152.4 204.2c0 12.3-9.9 22.2-22.2 22.2-12.3 0-22.2-9.9-22.2-22.2 0-12.3 9.9-22.2 22.2-22.2 12.3 0 22.2 9.9 22.2 22.2z"/>
		<path id="Layer" class="s0" d="m211.6 204.2c0 12.3-9.9 22.2-22.2 22.2-12.3 0-22.2-9.9-22.2-22.2 0-12.3 9.9-22.2 22.2-22.2 12.3 0 22.2 9.9 22.2 22.2z"/>
		<path id="Layer" class="s0" d="m270.8 204.2c0 12.3-9.9 22.2-22.2 22.2-12.3 0-22.2-9.9-22.2-22.2 0-12.3 9.9-22.2 22.2-22.2 12.3 0 22.2 9.9 22.2 22.2z"/>
		<path id="Layer" class="s0" d="m145 241.2h88.8c4.1 0 7.4 4.1 7.4 7.4v59.2c0 4.1-3.3 7.4-7.4 7.4h-88.8c-4.1 0-7.4-4.1-7.4-7.4v-59.2c0-4.1 3.3-7.4 7.4-7.4z"/>
	</g>
</svg>